<svg width="160" height="160" viewBox="0 0 160 160" fill="none" xmlns="http://www.w3.org/2000/svg">
<path d="M151.206 80C151.206 119.326 119.326 151.206 80 151.206C40.674 151.206 8.79404 119.326 8.79404 80C8.79404 40.674 40.674 8.79404 80 8.79404C119.326 8.79404 151.206 40.674 151.206 80Z" fill="#FEFFFF" stroke="url(#paint0_linear_101_15)" stroke-width="17.5881"/>
<path d="M40.064 91.224C39.68 91.224 39.3813 91.1173 39.168 90.904C38.9547 90.6693 38.848 90.3493 38.848 89.944V69.496C38.848 69.0693 38.9547 68.7493 39.168 68.536C39.3813 68.3227 39.68 68.216 40.064 68.216C40.4053 68.216 40.672 68.2907 40.864 68.44C41.0773 68.568 41.2693 68.792 41.44 69.112L50.208 85.624H49.248L57.984 69.112C58.1547 68.792 58.336 68.568 58.528 68.44C58.72 68.2907 58.9973 68.216 59.36 68.216C59.7227 68.216 60.0107 68.3227 60.224 68.536C60.4373 68.7493 60.544 69.0693 60.544 69.496V89.944C60.544 90.3493 60.4373 90.6693 60.224 90.904C60.032 91.1173 59.7333 91.224 59.328 91.224C58.944 91.224 58.6453 91.1173 58.432 90.904C58.2187 90.6693 58.112 90.3493 58.112 89.944V71.96H58.88L50.88 86.968C50.7307 87.2453 50.5707 87.448 50.4 87.576C50.2507 87.6827 50.0267 87.736 49.728 87.736C49.4293 87.736 49.1947 87.672 49.024 87.544C48.8533 87.416 48.704 87.224 48.576 86.968L40.48 71.928H41.248V89.944C41.248 90.3493 41.1413 90.6693 40.928 90.904C40.736 91.1173 40.448 91.224 40.064 91.224ZM72.439 91.224C72.055 91.224 71.7563 91.1173 71.543 90.904C71.3297 90.6693 71.223 90.3493 71.223 89.944V69.496C71.223 69.0693 71.3297 68.7493 71.543 68.536C71.7563 68.3227 72.055 68.216 72.439 68.216C72.7803 68.216 73.047 68.2907 73.239 68.44C73.4523 68.568 73.6443 68.792 73.815 69.112L82.583 85.624H81.623L90.359 69.112C90.5297 68.792 90.711 68.568 90.903 68.44C91.095 68.2907 91.3723 68.216 91.735 68.216C92.0977 68.216 92.3857 68.3227 92.599 68.536C92.8123 68.7493 92.919 69.0693 92.919 69.496V89.944C92.919 90.3493 92.8123 90.6693 92.599 90.904C92.407 91.1173 92.1083 91.224 91.703 91.224C91.319 91.224 91.0203 91.1173 90.807 90.904C90.5937 90.6693 90.487 90.3493 90.487 89.944V71.96H91.255L83.255 86.968C83.1057 87.2453 82.9457 87.448 82.775 87.576C82.6257 87.6827 82.4017 87.736 82.103 87.736C81.8043 87.736 81.5697 87.672 81.399 87.544C81.2283 87.416 81.079 87.224 80.951 86.968L72.855 71.928H73.623V89.944C73.623 90.3493 73.5163 90.6693 73.303 90.904C73.111 91.1173 72.823 91.224 72.439 91.224ZM112.43 91.288C110.937 91.288 109.625 91.096 108.494 90.712C107.385 90.3067 106.446 89.72 105.678 88.952C104.91 88.1627 104.334 87.192 103.95 86.04C103.566 84.888 103.374 83.5653 103.374 82.072V69.56C103.374 69.112 103.481 68.7813 103.694 68.568C103.929 68.3333 104.259 68.216 104.686 68.216C105.113 68.216 105.433 68.3333 105.646 68.568C105.881 68.7813 105.998 69.112 105.998 69.56V81.944C105.998 84.2907 106.542 86.0507 107.63 87.224C108.718 88.376 110.318 88.952 112.43 88.952C114.542 88.952 116.131 88.376 117.198 87.224C118.265 86.0507 118.798 84.2907 118.798 81.944V69.56C118.798 69.112 118.915 68.7813 119.15 68.568C119.385 68.3333 119.715 68.216 120.142 68.216C120.547 68.216 120.857 68.3333 121.07 68.568C121.305 68.7813 121.422 69.112 121.422 69.56V82.072C121.422 84.056 121.081 85.7413 120.398 87.128C119.737 88.5147 118.734 89.56 117.39 90.264C116.046 90.9467 114.393 91.288 112.43 91.288Z" fill="#005EB8"/>
<defs>
<linearGradient id="paint0_linear_101_15" x1="80" y1="0" x2="80" y2="160" gradientUnits="userSpaceOnUse">
<stop stop-color="#005EB8"/>
<stop offset="0.0001" stop-color="#005EB8" stop-opacity="0.996863"/>
<stop offset="0.0259417" stop-color="#005EB8" stop-opacity="0.984375"/>
<stop offset="0.0260417" stop-color="#005EB8" stop-opacity="0.973958"/>
<stop offset="0.046775" stop-color="#005EB8" stop-opacity="0.958333"/>
<stop offset="0.046875" stop-color="#005EB8" stop-opacity="0.953125"/>
<stop offset="0.114583" stop-color="#005EB8" stop-opacity="0.885417"/>
<stop offset="0.239583" stop-color="#005EB8" stop-opacity="0.760417"/>
<stop offset="0.390625" stop-color="#005EB8" stop-opacity="0.609375"/>
<stop offset="1" stop-color="#005EB8" stop-opacity="0"/>
</linearGradient>
</defs>
</svg>
